<?xml version="1.0" encoding="UTF-8"?>
<svg id="Capa_1" data-name="Capa 1" xmlns="http://www.w3.org/2000/svg" viewBox="0 0 16 16">
  <defs>
    <style>
      .cls-1 {
        stroke-width: .2px;
      }

      .cls-1, .cls-2 {
        stroke: #000;
      }

      .cls-1, .cls-2, .cls-3 {
        fill: none;
        stroke-miterlimit: 10;
      }

      .cls-2, .cls-3 {
        stroke-width: .25px;
      }

      .cls-3 {
        stroke: #3c98fe;
      }

      .cls-4 {
        fill: #3c98fe;
        font-family: Orbitron-Bold, Orbitron;
        font-size: 7px;
        font-weight: 700;
      }
    </style>
  </defs>
  <g id="Capa_2" data-name="Capa 2">
    <rect class="cls-2" x="4.8" y="4.97" width="6.5" height="6.58" rx=".7" ry=".7"/>
    <rect class="cls-3" x="3.55" y="3.79" width="9.08" height="8.8" rx=".83" ry=".83"/>
    <path class="cls-1" d="M15.4,4.79c.12-.03.21-.14.21-.27s-.09-.24-.21-.27c-.5,0-.99,0-1.49,0v-.63c-.01-.17-.06-.49-.28-.79-.06-.09-.18-.24-.38-.35-.12-.06-.22-.09-.3-.11-.09-.02-.19-.04-.49-.05-.13,0-.3,0-.5,0V.89c-.03-.14-.16-.23-.3-.22-.12,0-.22.1-.25.22,0,.48.01.96.02,1.44-.42,0-.84.01-1.26.02V.89c-.04-.11-.14-.19-.25-.21-.14-.02-.29.08-.33.24v1.44h-1.26V.92c-.03-.12-.14-.2-.26-.2-.12,0-.24.08-.27.2v1.44h-1.26V.84c-.05-.11-.16-.18-.28-.19-.14,0-.26.08-.32.21v1.51h-1.24c0-.51,0-1.02,0-1.53-.04-.11-.15-.18-.27-.19-.12,0-.23.06-.28.17,0,.5,0,1-.01,1.51h-.65c-.13.02-.48.08-.8.36-.4.35-.47.81-.48.93v.63H.65s-.13.09-.14.23c-.01.17.12.27.13.27h1.56v1.27c-.52,0-1.03,0-1.55,0-.1.06-.15.17-.14.28.01.15.13.23.14.24.52,0,1.03,0,1.55.01v1.27c-.52,0-1.03,0-1.55.01-.1.05-.16.16-.16.27,0,.12.07.22.17.27h1.53v1.18c-.5,0-1.01.01-1.51.02-.01,0-.15.09-.16.25,0,.12.05.24.16.3.51,0,1.01,0,1.52.01v1.17c-.51,0-1.01.01-1.52.02-.02.01-.15.11-.16.28,0,.2.15.31.16.32h1.51c0,.21,0,.43,0,.64.01.11.07.47.37.78.31.32.69.38.8.39.24,0,.48,0,.72,0v1.44c.04.14.16.23.3.24.15,0,.28-.09.32-.24v-1.44h1.21c0,.47,0,.95-.01,1.42.03.17.18.28.33.27.13-.01.24-.12.27-.25v-1.43h1.26v1.42c0,.18.14.31.3.3.15-.01.27-.15.25-.32,0-.47,0-.94,0-1.4h1.26v1.48c.05.15.18.25.33.24.13,0,.24-.09.28-.22v-1.5h1.2v1.44c.02.15.16.26.3.25.12,0,.23-.11.25-.24v-1.45h.8c.14-.02.65-.09.92-.49.16-.24.21-.57.22-.68.01-.09.03-.23.03-.38,0-.12,0-.22,0-.3h1.36c.17,0,.3-.14.3-.3,0-.16-.14-.29-.3-.28-.45,0-.9-.01-1.36-.02,0-.39,0-.77,0-1.16.46,0,.92,0,1.38,0,.17.02.32-.12.32-.28s-.15-.3-.32-.28c-.46,0-.92-.01-1.38-.02,0-.39-.02-.78-.03-1.17.48,0,.97-.01,1.45-.02.16,0,.29-.15.28-.3,0-.15-.13-.27-.28-.27h-1.4v-1.22c.47,0,.94-.01,1.4-.02.16,0,.3-.12.3-.27,0-.16-.13-.29-.3-.28-.48,0-.95,0-1.42,0,0-.42,0-.83-.01-1.25h1.5Z"/>
  </g>
  <text class="cls-4" transform="translate(6.56 10.94)"><tspan x="0" y="0">t</tspan></text>
</svg>