<?xml version="1.0" encoding="UTF-8"?>
<svg id="Capa_2" data-name="Capa 2" xmlns="http://www.w3.org/2000/svg" viewBox="0 0 1080 1080">
  <defs>
    <style>
      .cls-1 {
        fill: #3c98fe;
        font-family: Orbitron-Bold, Orbitron;
        font-size: 406.48px;
        font-weight: 700;
      }

      .cls-1, .cls-2, .cls-3, .cls-4 {
        stroke-miterlimit: 10;
      }

      .cls-1, .cls-4 {
        stroke: #3c98fe;
        stroke-width: 11px;
      }

      .cls-2 {
        stroke-width: 15px;
      }

      .cls-2, .cls-3 {
        stroke: #000;
      }

      .cls-2, .cls-3, .cls-4 {
        fill: none;
      }

      .cls-3 {
        stroke-width: 17px;
      }
    </style>
  </defs>
  <g id="Capa_2-2" data-name="Capa 2">
    <rect class="cls-3" x="320.11" y="331.56" width="437.84" height="443.26" rx="55.42" ry="55.42"/>
    <rect class="cls-4" x="235.77" y="251.96" width="611.75" height="593.43" rx="46.79" ry="46.79"/>
    <path class="cls-2" d="M1034.61,319.38c8.08-2.23,13.83-9.68,13.83-18.08s-5.74-15.85-13.83-18.08c-33.4,0-66.69,0-100.09.11v-42.76c-.85-11.17-4.15-32.97-19.04-53.18-4.25-5.85-11.91-15.96-25.53-23.4-7.87-4.36-15-6.17-20.21-7.45-6.17-1.49-12.98-2.66-32.97-3.19-8.83-.21-20.42-.32-34.04,0V56.54c-2.34-9.36-11.06-15.64-20.21-14.89-8.08.64-15,6.7-17.02,14.89.32,32.23.74,64.57,1.06,96.79-28.4.32-56.69.74-85.09,1.06V56.54c-2.87-7.55-9.47-12.98-17.02-13.83-9.57-1.06-19.25,5.53-22.34,15.96v96.79h-84.67V58.57c-2.13-7.98-9.25-13.62-17.44-13.72-8.4-.21-16.06,5.53-18.3,13.72v96.9h-84.88V53.35c-3.62-7.55-10.96-12.45-19.15-12.76-9.15-.32-17.66,5.21-21.27,13.83v102.11l-83.39.21c.11-34.46.32-68.93.43-103.39-2.98-7.45-10.1-12.45-18.08-12.76-8.08-.32-15.64,4.36-19.15,11.7-.21,33.83-.53,67.65-.74,101.48h-44.04c-9.04,1.06-32.65,5.11-54.14,24.15-26.91,23.83-31.7,54.67-32.65,62.65v42.76H40.39c-.96.64-8.72,5.74-9.47,15.64-.85,11.28,8.08,17.98,8.62,18.3h105.09v85.84c-34.89,0-69.67,0-104.56.11-6.49,4.25-10.1,11.59-9.57,19.15.74,10,8.62,15.32,9.57,15.96,34.89.32,69.67.64,104.56.96v85.31c-34.89.32-69.67.64-104.56.96-6.59,3.62-10.74,10.53-10.64,18.08,0,7.76,4.68,14.79,11.7,18.08h103.18c.11,26.59.21,53.18.32,79.78-34.14.32-68.29.74-102.43,1.06-.85.53-9.89,6.17-10.64,17.02-.64,8.08,3.51,15.85,10.64,20.21,34.14.21,68.29.53,102.43.74-.11,26.38-.21,52.65-.32,79.03-34.04.32-68.08.74-102.11,1.06-1.06.74-10.1,7.23-10.64,19.15-.53,13.19,9.89,20.74,10.64,21.27h102.11c.11,14.36.21,28.72.32,43.08.85,7.45,4.68,31.8,25.21,52.65,21.17,21.49,46.27,25.32,53.61,26.17,16.17.11,32.34.32,48.5.43v96.79c2.55,9.25,10.74,15.74,20.21,15.96,9.79.21,18.61-6.38,21.27-15.96v-96.79h81.8c-.32,31.91-.64,63.82-.96,95.62,1.91,11.38,12.02,19.04,22.34,18.08,8.72-.85,16.17-7.76,18.08-17.02l.53-96.69h84.56v95.73c-.43,11.81,9.57,21.06,20.21,20.21,9.89-.85,18.08-10.32,17.02-21.27,0-31.48.11-63.08.21-94.56h84.88v99.99c3.08,10,12.45,16.59,22.34,15.96,8.62-.53,16.17-6.38,19.15-14.89v-101.05h80.84v96.79c1.49,10.42,10.64,17.76,20.21,17.02,8.19-.64,15.42-7.13,17.02-15.96v-97.86h54.25c9.47-1.17,44.14-6.28,61.69-32.97,10.64-16.17,13.83-38.61,14.89-45.74.85-5.96,1.81-15.42,2.13-25.53.32-8.19.21-15.1,0-20.21h91.48c11.27.11,20.53-9.25,20.21-20.21-.32-10.53-9.25-19.25-20.21-19.15-30.53-.32-60.95-.74-91.48-1.06,0-25.95-.11-52.01-.21-77.97,30.95.11,61.8.21,92.75.32,11.38,1.06,21.27-8.08,21.27-19.15s-9.89-20.21-21.27-19.15c-30.95-.32-61.8-.74-92.75-1.06-.64-26.27-1.28-52.44-1.91-78.71,32.65-.32,65.2-.74,97.86-1.06,11.06-.32,19.68-9.79,19.15-20.21-.53-9.79-8.83-17.87-19.15-18.08h-94.67v-81.9c31.59-.32,63.08-.74,94.67-1.06,10.85.64,19.89-7.87,20.21-18.08.32-10.64-9.04-19.78-20.21-19.15-32.02,0-63.93,0-95.94-.11-.32-27.97-.64-55.95-.85-83.92h101.05v.11Z"/>
  </g>
  <text class="cls-1" transform="translate(446.05 700.51) scale(1.15 1)"><tspan x="0" y="0">t</tspan></text>
</svg>