<?xml version="1.0" encoding="UTF-8"?>
<svg id="Capa_1" data-name="Capa 1" xmlns="http://www.w3.org/2000/svg" viewBox="0 0 1200 400">
  <defs>
    <style>
      .cls-1 {
        font-size: 129px;
      }

      .cls-1, .cls-2 {
        font-family: Orbitron-Bold, Orbitron;
        font-weight: 700;
      }

      .cls-3 {
        stroke-width: 6px;
      }

      .cls-3, .cls-4, .cls-5 {
        fill: none;
        stroke: #3c98fe;
        stroke-miterlimit: 10;
      }

      .cls-2 {
        font-size: 364.83px;
      }

      .cls-4 {
        stroke-width: 9px;
      }

      .cls-5 {
        stroke-width: 6.2px;
      }
    </style>
  </defs>
  <g id="Capa_2" data-name="Capa 2">
    <rect class="cls-3" x="550" y="182.5" width="121" height="122.5" rx="15.39" ry="15.39"/>
    <rect class="cls-4" x="526.69" y="160.5" width="169.06" height="164" rx="14.65" ry="14.65"/>
    <path class="cls-5" d="M747.46,179.13c2.23-.62,3.82-2.68,3.82-5s-1.59-4.38-3.82-5c-9.23,0-18.43,0-27.66.03v-11.82c-.24-3.09-1.15-9.11-5.26-14.7-1.18-1.62-3.29-4.41-7.05-6.47-2.18-1.21-4.14-1.7-5.59-2.06-1.7-.41-3.59-.73-9.11-.88-2.44-.06-5.64-.09-9.41,0v-26.75c-.65-2.59-3.06-4.32-5.59-4.12-2.23.18-4.14,1.85-4.7,4.12.09,8.91.21,17.84.29,26.75-7.85.09-15.67.21-23.52.29v-27.04c-.79-2.09-2.62-3.59-4.7-3.82-2.65-.29-5.32,1.53-6.17,4.41v26.75h-23.4v-26.78c-.59-2.2-2.56-3.76-4.82-3.79-2.32-.06-4.44,1.53-5.06,3.79v26.78h-23.46v-28.22c-1-2.09-3.03-3.44-5.29-3.53-2.53-.09-4.88,1.44-5.88,3.82v28.22l-23.05.06c.03-9.52.09-19.05.12-28.57-.82-2.06-2.79-3.44-5-3.53-2.23-.09-4.32,1.21-5.29,3.23-.06,9.35-.15,18.7-.21,28.04h-12.17c-2.5.29-9.02,1.41-14.96,6.67-7.44,6.58-8.76,15.11-9.02,17.31v11.82h-28.81c-.26.18-2.41,1.59-2.62,4.32-.24,3.12,2.23,4.97,2.38,5.06h29.04v23.72c-9.64,0-19.25,0-28.9.03-1.79,1.18-2.79,3.2-2.65,5.29.21,2.76,2.38,4.23,2.65,4.41,9.64.09,19.25.18,28.9.26v23.58c-9.64.09-19.25.18-28.9.26-1.82,1-2.97,2.91-2.94,5,0,2.15,1.29,4.09,3.23,5h28.51c.03,7.35.06,14.7.09,22.05-9.44.09-18.87.21-28.31.29-.24.15-2.73,1.7-2.94,4.7-.18,2.23.97,4.38,2.94,5.59,9.44.06,18.87.15,28.31.21-.03,7.29-.06,14.55-.09,21.84-9.41.09-18.81.21-28.22.29-.29.21-2.79,2-2.94,5.29-.15,3.65,2.73,5.73,2.94,5.88h28.22c.03,3.97.06,7.94.09,11.91.24,2.06,1.29,8.79,6.97,14.55,5.85,5.94,12.79,7,14.82,7.23,4.47.03,8.94.09,13.4.12v26.75c.71,2.56,2.97,4.35,5.59,4.41,2.7.06,5.14-1.76,5.88-4.41v-26.75h22.61c-.09,8.82-.18,17.64-.26,26.43.53,3.15,3.32,5.26,6.17,5,2.41-.24,4.47-2.15,5-4.7l.15-26.72h23.37v26.46c-.12,3.26,2.65,5.82,5.59,5.59,2.73-.24,5-2.85,4.7-5.88,0-8.7.03-17.43.06-26.13h23.46v27.63c.85,2.76,3.44,4.59,6.17,4.41,2.38-.15,4.47-1.76,5.29-4.12v-27.93h22.34v26.75c.41,2.88,2.94,4.91,5.59,4.7,2.26-.18,4.26-1.97,4.7-4.41v-27.04h14.99c2.62-.32,12.2-1.73,17.05-9.11,2.94-4.47,3.82-10.67,4.12-12.64.24-1.65.5-4.26.59-7.05.09-2.26.06-4.17,0-5.59h25.28c3.12.03,5.67-2.56,5.59-5.59-.09-2.91-2.56-5.32-5.59-5.29-8.44-.09-16.84-.21-25.28-.29,0-7.17-.03-14.37-.06-21.55,8.55.03,17.08.06,25.63.09,3.15.29,5.88-2.23,5.88-5.29s-2.73-5.59-5.88-5.29c-8.55-.09-17.08-.21-25.63-.29-.18-7.26-.35-14.49-.53-21.75,9.02-.09,18.02-.21,27.04-.29,3.06-.09,5.44-2.7,5.29-5.59-.15-2.7-2.44-4.94-5.29-5h-26.16v-22.63c8.73-.09,17.43-.21,26.16-.29,3,.18,5.5-2.18,5.59-5,.09-2.94-2.5-5.47-5.59-5.29-8.85,0-17.67,0-26.51-.03-.09-7.73-.18-15.46-.24-23.19h27.93v.03Z"/>
  </g>
  <text class="cls-2" transform="translate(-10.73 346.93)"><tspan x="0" y="0">St</tspan></text>
  <text class="cls-2" transform="translate(763.64 349.09)"><tspan x="0" y="0">re</tspan></text>
  <text class="cls-1" transform="translate(561.89 291.08)"><tspan x="0" y="0">T</tspan></text>
</svg>