<?xml version="1.0" encoding="UTF-8"?>
<svg id="Capa_1" data-name="Capa 1" xmlns="http://www.w3.org/2000/svg" viewBox="0 0 1080 1920">
  <defs>
    <style>
      .cls-1, .cls-2, .cls-3, .cls-4, .cls-5, .cls-6, .cls-7, .cls-8, .cls-9, .cls-10 {
        stroke-miterlimit: 10;
      }

      .cls-1, .cls-2, .cls-3, .cls-5, .cls-6, .cls-7, .cls-8, .cls-9, .cls-10 {
        stroke: #000;
      }

      .cls-1, .cls-4 {
        fill: none;
      }

      .cls-2, .cls-11 {
        fill: gray;
      }

      .cls-12 {
        font-size: 90px;
      }

      .cls-12, .cls-13, .cls-14, .cls-15 {
        font-family: Orbitron-Bold, Orbitron;
        font-weight: 700;
      }

      .cls-16 {
        letter-spacing: -.02em;
      }

      .cls-17 {
        letter-spacing: -.02em;
      }

      .cls-18 {
        letter-spacing: -.02em;
      }

      .cls-19 {
        letter-spacing: -.02em;
      }

      .cls-20, .cls-3 {
        fill: #fff;
      }

      .cls-21 {
        letter-spacing: 0em;
      }

      .cls-4 {
        stroke: #fff;
      }

      .cls-22 {
        letter-spacing: -.02em;
      }

      .cls-23 {
        fill: #735a4d;
      }

      .cls-24 {
        letter-spacing: -.02em;
      }

      .cls-25 {
        letter-spacing: -.02em;
      }

      .cls-26 {
        fill: #a6735a;
      }

      .cls-27 {
        letter-spacing: 0em;
      }

      .cls-28 {
        fill: #404040;
      }

      .cls-29 {
        letter-spacing: -.02em;
      }

      .cls-6, .cls-30 {
        fill: #e6b399;
      }

      .cls-7, .cls-31 {
        fill: #c63;
      }

      .cls-8, .cls-32 {
        fill: #d98d66;
      }

      .cls-33, .cls-9 {
        fill: #66331a;
      }

      .cls-34 {
        letter-spacing: -.04em;
      }

      .cls-35 {
        letter-spacing: -.02em;
      }

      .cls-36 {
        fill: #c36701;
      }

      .cls-37 {
        fill: silver;
      }

      .cls-38 {
        letter-spacing: -.02em;
      }

      .cls-39 {
        letter-spacing: -.02em;
      }

      .cls-40 {
        letter-spacing: -.04em;
      }

      .cls-41 {
        letter-spacing: -.02em;
      }

      .cls-42 {
        letter-spacing: -.01em;
      }

      .cls-43 {
        letter-spacing: 0em;
      }

      .cls-44 {
        fill: #45210f;
      }

      .cls-45 {
        letter-spacing: -.04em;
      }

      .cls-46 {
        letter-spacing: .02em;
      }

      .cls-47 {
        letter-spacing: -.01em;
      }

      .cls-48 {
        fill: #f0c9b6;
      }

      .cls-49, .cls-10 {
        fill: #ab5428;
      }

      .cls-50 {
        letter-spacing: -.01em;
      }

      .cls-51 {
        letter-spacing: -.01em;
      }

      .cls-13 {
        font-size: 79px;
      }

      .cls-52 {
        letter-spacing: .01em;
      }

      .cls-53 {
        letter-spacing: -.03em;
      }

      .cls-54 {
        letter-spacing: -.02em;
      }

      .cls-55 {
        letter-spacing: -.01em;
      }

      .cls-14 {
        font-size: 68px;
      }

      .cls-15 {
        font-size: 37px;
      }
    </style>
  </defs>
  <rect class="cls-3" x="1.54" y="-.25" width="1080" height="1920"/>
  <g>
    <g>
      <path class="cls-48" d="M975.05,460.95c3.75,22.54,6.5,49.4,6.22,79.66-.36,40.22-5.97,74.81-12.41,102l-.45-.18c8.02-33.28,12.35-68.8,12.35-105.68,0-26-2.15-51.32-6.24-75.66l.53-.14Z"/>
      <path class="cls-30" d="M975.05,460.95l-.53.14c-12.15-72.48-41.38-136.24-81.7-183.22l.23-.48c17.14,20.87,38.5,51.38,55.78,91.78,15.06,35.19,22.44,67.17,26.22,91.78Z"/>
      <path class="cls-48" d="M974.52,461.09c4.09,24.34,6.24,49.66,6.24,75.66,0,36.88-4.33,72.4-12.35,105.68l-102.27-41.93c3.6-15.88,6.7-36.21,6.71-59.89,0-20.07-2.23-37.62-5.01-51.89l106.68-27.63Z"/>
      <path class="cls-30" d="M974.52,461.09l-106.68,27.63c-2.42-13-6.61-29.16-14.11-46.83-6.83-16.08-14.62-29.25-21.63-39.49l60.72-124.53c40.32,46.98,69.55,110.74,81.7,183.22Z"/>
      <path class="cls-20" d="M968.41,642.43l.45.18c-4.62,19.93-11.84,43.68-23.42,69.31-15.41,34.13-33.63,60.74-49.15,80.08-.06-.1-.11-.2-.17-.3,33.04-39.85,58.28-91.15,72.29-149.27Z"/>
      <path class="cls-20" d="M866.14,600.5l102.27,41.93c-14.01,58.12-39.25,109.42-72.29,149.27-21.09-37.03-42.19-74.06-63.27-111.09,7.14-11.57,14.74-25.81,21.44-42.66,5.39-13.57,9.17-26.24,11.85-37.45Z"/>
      <path class="cls-37" d="M896.12,791.7c.06.1.11.2.17.3-7.31,8.95-16.13,18.52-26.7,28.04-6.41,5.77-12.84,10.97-19.18,15.63,16.45-12.38,31.78-27.16,45.71-43.97Z"/>
      <path class="cls-37" d="M832.85,680.61c21.08,37.03,42.18,74.06,63.27,111.09-13.93,16.81-29.26,31.59-45.71,43.97-.36.26-.71.53-1.07.79-14.95,10.9-29.38,18.91-41.92,24.82-1.38.63-2.77,1.24-4.17,1.83l-44.75-127.7c.12-.04.24-.09.37-.14,13.27-4.14,25.84-10.75,37.45-19.44,4.34-3.02,8.75-6.41,13.14-10.2,9.93-8.58,17.58-17.32,23.39-25.02Z"/>
      <path class="cls-32" d="M893.05,277.39l-.23.48c-28.91-33.67-63.51-58.71-101.6-72.16l.05-.31c15.87,5.9,36.82,15.57,58.73,31.59,19,13.9,33.09,28.46,43.05,40.4Z"/>
      <path class="cls-32" d="M892.82,277.87l-60.72,124.53c-5.89-8.78-15.18-20.6-29.01-31.91-13.71-11.21-27-17.94-36.71-21.97l24.84-142.81c38.09,13.45,72.69,38.49,101.6,72.16Z"/>
      <path class="cls-30" d="M867.84,488.72c2.78,14.27,5.01,31.82,5.01,51.89-.01,23.68-3.11,44.01-6.71,59.89-2.68,11.21-6.46,23.88-11.85,37.45-6.7,16.85-14.3,31.09-21.44,42.66-5.81,7.7-13.46,16.44-23.39,25.02-4.39,3.79-8.8,7.18-13.14,10.2,24.08-18.03,44.04-45.05,57.45-77.75,11.81-28.79,18.54-61.98,18.54-97.33,0-42.55-9.75-81.99-26.38-114.38-19.97-38.89-49.85-67.62-84.63-79.36,1.79.5,3.49,1.01,5.08,1.51,9.71,4.03,23,10.76,36.71,21.97,13.83,11.31,23.12,23.13,29.01,31.91,7.01,10.24,14.8,23.41,21.63,39.49,7.5,17.67,11.69,33.83,14.11,46.83Z"/>
      <path class="cls-30" d="M845.92,426.38l7.84,211.7-63.02-151.3-60.22-144.57c.32.01.63.02.94.04l114.46,84.13Z"/>
      <polygon class="cls-20" points="790.74 486.78 853.76 638.08 731.87 640.33 731.87 568.75 790.73 486.78 790.74 486.78"/>
      <path class="cls-11" d="M731.87,640.33l121.89-2.25-118.16,101.7c-.1.01-.19.02-.28.02l-133.37-95.93c-.19-.38-.37-.76-.56-1.14l130.48-2.4Z"/>
      <path class="cls-30" d="M807.42,861.28c12.54-5.91,26.97-13.92,41.92-24.82-13.29,9.89-27.31,18.23-41.92,24.82Z"/>
      <path class="cls-37" d="M803.25,863.11c1.4-.59,2.79-1.2,4.17-1.83-1.4.66-2.79,1.3-4.14,1.91l-.03-.08Z"/>
      <path class="cls-11" d="M803.25,863.11l.03.08c-14.8,6.45-39.78,15.12-71.77,15.87-13.59.31-26.05-.85-37.13-2.8,10.53,1.79,21.27,2.71,32.16,2.71,26.73,0,52.51-5.56,76.71-15.86Z"/>
      <path class="cls-11" d="M758.5,735.41l44.75,127.7c-24.2,10.3-49.98,15.86-76.71,15.86-10.89,0-21.63-.92-32.16-2.71-.89-.15-1.78-.31-2.67-.48-17.61-3.34-31.57-8.55-40.86-12.59,11.85-43.44,23.7-86.88,35.54-130.32,12.62,4.85,25.94,7.44,39.7,7.44,5.27,0,10.48-.38,15.61-1.13,6.39-.83,12.03-2.24,16.8-3.77Z"/>
      <path class="cls-31" d="M791.27,205.4l-.05.31c-20.65-7.3-42.33-11.18-64.68-11.18-16.2,0-32.04,2.04-47.39,5.94,14.46-3.72,32.99-6.7,54.47-5.97,24.19.82,43.95,6.07,57.65,10.9Z"/>
      <path class="cls-31" d="M791.22,205.71l-24.84,142.81c-1.59-.5-3.29-1.01-5.08-1.51-10.02-3.38-20.45-5.35-31.17-5.74-1.34-.05-2.69-.08-4.04-.08-9.01,0-17.83,1.11-26.39,3.25l-36.83-139.04c3.12-1.1,6.62-2.24,10.48-3.36,1.03-.29,2.08-.59,3.15-.88.88-.24,1.77-.47,2.65-.69,15.35-3.9,31.19-5.94,47.39-5.94,22.35,0,44.03,3.88,64.68,11.18Z"/>
      <path class="cls-36" d="M730.52,342.21l60.22,144.57h-.01l-58.86,81.97-57.6-70.53-7.65-9.36,63.12-146.68c.15,0,.3,0,.46.01.11,0,.22,0,.32.02Z"/>
      <path class="cls-37" d="M758.87,735.27c10.21-3.74,23.51-9.73,37.45-19.44-11.61,8.69-24.18,15.3-37.45,19.44Z"/>
      <path class="cls-30" d="M758.87,735.27c-.13.05-.25.1-.37.14-4.77,1.53-10.41,2.94-16.8,3.77,5.84-.84,11.57-2.15,17.17-3.91Z"/>
      <path class="cls-31" d="M761.3,347.01c-8.07-2.22-18.16-4.21-29.84-4.76l-1.33-.98c10.72.39,21.15,2.36,31.17,5.74Z"/>
      <path class="cls-11" d="M735.99,739.76c1.96-.13,3.87-.33,5.71-.58-5.13.75-10.34,1.13-15.61,1.13-13.76,0-27.08-2.59-39.7-7.44.23-.83.45-1.65.68-2.48,9.47,4.43,26.66,10.79,48.25,9.41l.14.1.14-.12c.13,0,.26,0,.39-.02Z"/>
      <path class="cls-11" d="M735.6,739.78l-.14.12-.14-.1c.09,0,.18-.01.28-.02Z"/>
      <path d="M731.87,568.75v71.58l-130.48,2.4c-.17-.36-.35-.72-.52-1.08l65.75-152.79,7.65,9.36,57.6,70.53Z"/>
      <path class="cls-31" d="M730.13,341.27l1.33.98c-.31-.02-.62-.03-.94-.04l-.39-.94Z"/>
      <path class="cls-31" d="M730.52,342.21c-.1-.01-.21-.02-.32-.02-.16-.01-.31-.01-.46-.01l.39-.91.39.94Z"/>
      <path class="cls-31" d="M730.13,341.27l-.39.91c-.3-.02-.6-.03-.89-.03l1.28-.88Z"/>
      <path class="cls-31" d="M730.13,341.27l-1.28.88c-11.43-.33-21.33.83-29.15,2.3h0c8.56-2.15,17.38-3.26,26.39-3.26,1.35,0,2.7.03,4.04.08Z"/>
      <path class="cls-33" d="M729.74,342.18l-63.12,146.68-65.75,152.79-.42-.87,5.79-213.52c.22-.45.45-.89.69-1.34l121.92-83.77c.29,0,.59,0,.89.03Z"/>
      <path class="cls-49" d="M699.7,344.44h0c-9.91,2.8-23.75,7.9-38.37,17.57-17.04,11.27-28.16,24.13-34.73,33.06l-.19-.33c20.01-25.45,45.25-43.33,73.29-50.3Z"/>
      <path class="cls-49" d="M662.87,205.4l36.83,139.04c-28.04,6.97-53.28,24.85-73.29,50.3l-65.32-117.35c10.07-12.09,24.5-27.01,44.14-41.2,21.53-15.57,42.06-25.01,57.64-30.79Z"/>
      <path class="cls-28" d="M687.07,730.39c-.23.83-.45,1.65-.68,2.48-28.5-10.95-53.46-33.38-72.06-63.41.44-.83.89-1.65,1.33-2.48,7.48,11.72,19.45,27.42,37.63,42.08,12.16,9.8,23.97,16.61,33.78,21.33Z"/>
      <path class="cls-28" d="M686.39,732.87c-11.84,43.44-23.69,86.88-35.54,130.32-7.8-3.22-16.91-7.49-26.75-13.14-22.99-13.64-44.2-31.73-63.02-53.47-3.3-4.03-6.2-7.86-8.73-11.39,20.66-38.57,41.32-77.15,61.98-115.73,18.6,30.03,43.56,52.46,72.06,63.41Z"/>
      <path class="cls-30" d="M673.35,202.04c1.04-.31,2.1-.6,3.15-.88-1.07.29-2.12.59-3.15.88Z"/>
      <path class="cls-30" d="M673.35,202.04c-3.86,1.12-7.36,2.26-10.48,3.36-15.58,5.78-36.11,15.22-57.64,30.79-19.64,14.19-34.07,29.11-44.14,41.2-15.67,18.9-34.4,45.3-50.4,79.49-13.49,28.83-21.39,55.38-26.15,76.86-5.77,24.93-10.75,56-11.56,91.86-1.02,45.05,4.86,83.37,11.56,112.35,4.63,21.79,12.53,49.25,26.53,79.23,13.24,28.33,28.22,50.97,41.28,68.01,2.53,3.53,5.43,7.36,8.73,11.39-54.34-62.76-88.77-155.88-88.77-259.83,0-164.44,86.16-301.8,201.04-334.71Z"/>
      <path class="cls-30" d="M650.85,863.19c9.29,4.04,23.25,9.25,40.86,12.59-23.74-4.37-46.43-13.16-67.61-25.73,9.84,5.65,18.95,9.92,26.75,13.14Z"/>
      <path class="cls-33" d="M626.41,394.74l.19.33c-5.61,7.3-11.55,16.03-17.2,26.24-.86,1.55-1.68,3.08-2.47,4.61l-.67.46h-.01c5.9-11.5,12.66-22.1,20.16-31.64Z"/>
      <path class="cls-33" d="M561.09,277.39l65.32,117.35c-7.5,9.54-14.26,20.14-20.16,31.63-5.52,10.76-10.29,22.29-14.19,34.46-35.84-9.03-71.69-18.06-107.52-27.09,4.76-21.48,12.66-48.03,26.15-76.86,16-34.19,34.73-60.59,50.4-79.49Z"/>
      <path d="M615.66,666.98c-.44.83-.89,1.65-1.33,2.48-5.16-8.35-9.83-17.28-13.94-26.71h.01l1.55,1.12c4.54,9.13,9.33,16.84,13.71,23.11Z"/>
      <path d="M614.33,669.46c-20.66,38.58-41.32,77.16-61.98,115.73-13.06-17.04-28.04-39.68-41.28-68.01-14-29.98-21.9-57.44-26.53-79.23,33.4-15.3,66.8-30.6,100.21-45.89,3.5,18.03,8.81,35.05,15.64,50.69,4.11,9.43,8.78,18.36,13.94,26.71Z"/>
      <path class="cls-33" d="M606.26,426.38l.67-.46c-.24.45-.47.89-.69,1.34l.02-.88Z"/>
      <path class="cls-33" d="M606.26,426.38l-.02.88c-6.3,12.31-10.66,23.82-13.71,33.69-.16-.04-.31-.08-.47-.12,3.9-12.17,8.67-23.7,14.19-34.46h.01Z"/>
      <path d="M601.95,643.87l-1.55-1.12.99-.02c.19.38.37.76.56,1.14Z"/>
      <path d="M600.87,641.65c.17.36.35.72.52,1.08l-.99.02.47-1.1Z"/>
      <path d="M600.87,641.65l-.47,1.1.05-1.97.42.87Z"/>
      <path d="M600.45,640.78l-.05,1.97h-.01c-6.83-15.64-12.14-32.66-15.64-50.69.17-.08.35-.16.52-.24,1.79,11.16,5.14,25.38,11.65,41.02,1.14,2.75,2.33,5.4,3.53,7.94Z"/>
      <path class="cls-28" d="M624.1,850.05c-8.38-4.83-17.3-10.66-26.37-17.71-15.57-12.11-27.6-24.69-36.65-35.76,18.82,21.74,40.03,39.83,63.02,53.47Z"/>
      <path class="cls-44" d="M592.06,460.83c.16.04.31.08.47.12-4.57,14.62-8.86,32.76-10.91,53.8-3.04,31.13-.1,57.67,3.65,77.07-.17.08-.35.16-.52.24-3.18-16.37-4.88-33.57-4.88-51.31,0-28.42,4.35-55.45,12.19-79.92Z"/>
      <path class="cls-44" d="M484.54,433.74c35.83,9.03,71.68,18.06,107.52,27.09-7.84,24.47-12.19,51.5-12.19,79.92,0,17.74,1.7,34.94,4.88,51.31-33.41,15.29-66.81,30.59-100.21,45.89-6.7-28.98-12.58-67.3-11.56-112.35.81-35.86,5.79-66.93,11.56-91.86Z"/>
    </g>
    <g>
      <path class="cls-4" d="M691.71,875.78c-23.74-4.37-46.43-13.16-67.61-25.73"/>
      <path class="cls-4" d="M849.34,836.46c-13.29,9.89-27.31,18.23-41.92,24.82"/>
      <path class="cls-4" d="M561.08,796.58c-54.34-62.76-88.77-155.88-88.77-259.83,0-164.44,86.16-301.8,201.04-334.71,1.04-.31,2.1-.6,3.15-.88"/>
      <path class="cls-4" d="M758.87,735.27c-5.6,1.76-11.33,3.07-17.17,3.91"/>
      <path class="cls-4" d="M761.3,347.01c34.78,11.74,64.66,40.47,84.63,79.36,16.63,32.39,26.38,71.83,26.38,114.38,0,35.35-6.73,68.54-18.54,97.33-13.41,32.7-33.37,59.72-57.45,77.75"/>
      <line class="cls-4" x1="600.45" y1="640.78" x2="606.24" y2="427.26"/>
      <line class="cls-4" x1="735.32" y1="739.8" x2="601.95" y2="643.87"/>
      <polyline class="cls-4" points="731.46 342.25 845.92 426.38 853.76 638.08 735.6 739.78"/>
      <line class="cls-4" x1="606.93" y1="425.92" x2="728.85" y2="342.15"/>
      <polyline class="cls-4" points="601.39 642.73 731.87 640.33 853.76 638.08 790.74 486.78 730.52 342.21"/>
      <polyline class="cls-4" points="729.74 342.18 666.62 488.86 600.87 641.65"/>
      <polyline class="cls-4" points="666.62 488.86 674.27 498.22 731.87 568.75 731.87 640.33 731.87 642.75"/>
      <line class="cls-4" x1="790.73" y1="486.78" x2="731.87" y2="568.75"/>
      <path class="cls-1" d="M626.6,395.07c-5.61,7.3-11.55,16.03-17.2,26.24-.86,1.55-1.68,3.08-2.47,4.61-.24.45-.47.89-.69,1.34-6.3,12.31-10.66,23.82-13.71,33.69"/>
      <path class="cls-1" d="M484.54,433.74c4.76-21.48,12.66-48.03,26.15-76.86,16-34.19,34.73-60.59,50.4-79.49"/>
      <path class="cls-1" d="M699.7,344.45c-9.91,2.79-23.75,7.89-38.37,17.56-17.04,11.27-28.16,24.13-34.73,33.06l-.19-.33-65.32-117.35c10.07-12.09,24.5-27.01,44.14-41.2,21.53-15.57,42.06-25.01,57.64-30.79"/>
      <path class="cls-1" d="M766.38,348.52c-1.59-.5-3.29-1.01-5.08-1.51-8.07-2.22-18.16-4.21-29.84-4.76-.31-.02-.62-.03-.94-.04-.1-.01-.21-.02-.32-.02-.16-.01-.31-.01-.46-.01-.3-.02-.6-.03-.89-.03-11.43-.33-21.33.83-29.15,2.3h0s-36.83-139.05-36.83-139.05c3.12-1.1,6.62-2.24,10.48-3.36,1.03-.29,2.08-.59,3.15-.88.88-.24,1.77-.47,2.65-.69,14.46-3.72,32.99-6.7,54.47-5.97,24.19.82,43.95,6.07,57.65,10.9"/>
      <path class="cls-1" d="M832.1,402.4c-5.89-8.78-15.18-20.6-29.01-31.91-13.71-11.21-27-17.94-36.71-21.97l24.84-142.81.05-.31c15.87,5.9,36.82,15.57,58.73,31.59,19,13.9,33.09,28.46,43.05,40.4"/>
      <path class="cls-1" d="M867.84,488.72c-2.42-13-6.61-29.16-14.11-46.83-6.83-16.08-14.62-29.25-21.63-39.49l60.72-124.53.23-.48c17.14,20.87,38.5,51.38,55.78,91.78,15.06,35.19,22.44,67.17,26.22,91.78"/>
      <path class="cls-1" d="M866.14,600.5c3.6-15.88,6.7-36.21,6.71-59.89,0-20.07-2.23-37.62-5.01-51.89l106.68-27.63.53-.14c3.75,22.54,6.5,49.4,6.22,79.66-.36,40.22-5.97,74.81-12.41,102"/>
      <path class="cls-1" d="M832.85,680.61c7.14-11.57,14.74-25.81,21.44-42.66,5.39-13.57,9.17-26.24,11.85-37.45l102.27,41.93.45.18c-4.62,19.93-11.84,43.68-23.42,69.31-15.41,34.13-33.63,60.74-49.15,80.08"/>
      <path class="cls-1" d="M758.5,735.41c.12-.04.24-.09.37-.14,10.21-3.74,23.51-9.73,37.45-19.44,4.34-3.02,8.75-6.41,13.14-10.2,9.93-8.58,17.58-17.32,23.39-25.02,21.08,37.03,42.18,74.06,63.27,111.09.06.1.11.2.17.3-7.31,8.95-16.13,18.52-26.7,28.04-6.41,5.77-12.84,10.97-19.18,15.63-.36.26-.71.53-1.07.79-14.95,10.9-29.38,18.91-41.92,24.82-1.4.66-2.79,1.3-4.14,1.91"/>
      <path class="cls-1" d="M687.07,730.39c9.47,4.43,26.66,10.79,48.25,9.41.09,0,.18-.01.28-.02.13,0,.26,0,.39-.02,1.96-.13,3.87-.33,5.71-.58,6.39-.83,12.03-2.24,16.8-3.77l44.75,127.7.03.08c-14.8,6.45-39.78,15.12-71.77,15.87-13.59.31-26.05-.85-37.13-2.8-.89-.15-1.78-.31-2.67-.48-17.61-3.34-31.57-8.55-40.86-12.59"/>
      <path class="cls-1" d="M615.66,666.98c7.48,11.72,19.45,27.42,37.63,42.08,12.16,9.8,23.97,16.61,33.78,21.33-.23.83-.45,1.65-.68,2.48-11.84,43.44-23.69,86.88-35.54,130.32-7.8-3.22-16.91-7.49-26.75-13.14-8.38-4.83-17.3-10.66-26.37-17.71-15.57-12.11-27.6-24.69-36.65-35.76-3.3-4.03-6.2-7.86-8.73-11.39"/>
      <path class="cls-1" d="M484.54,637.95c4.63,21.79,12.53,49.25,26.53,79.23,13.24,28.33,28.22,50.97,41.28,68.01,20.66-38.57,41.32-77.15,61.98-115.73.44-.83.89-1.65,1.33-2.48-4.38-6.27-9.17-13.98-13.71-23.11-.19-.38-.37-.76-.56-1.14-.17-.36-.35-.72-.52-1.08l-.42-.87c-1.2-2.54-2.39-5.19-3.53-7.94-6.51-15.64-9.86-29.86-11.65-41.02"/>
      <path class="cls-1" d="M484.54,433.74c-5.77,24.93-10.75,56-11.56,91.86-1.02,45.05,4.86,83.37,11.56,112.35,33.4-15.3,66.8-30.6,100.21-45.89.17-.08.35-.16.52-.24-3.75-19.4-6.69-45.94-3.65-77.07,2.05-21.04,6.34-39.18,10.91-53.8-.16-.04-.31-.08-.47-.12-35.84-9.03-71.69-18.06-107.52-27.09Z"/>
    </g>
  </g>
  <g id="Primarios">
    <g>
      <g>
        <rect class="cls-20" x="338.98" y="536.75" width="91.56" height="120.89"/>
        <rect x="224.31" y="536.75" width="90.67" height="120.89"/>
        <rect class="cls-31" x="114.98" y="536.75" width="86.22" height="116.44"/>
      </g>
      <g>
        <rect class="cls-1" x="338.98" y="536.75" width="91.56" height="120.89"/>
        <rect class="cls-1" x="114.98" y="536.75" width="86.22" height="116.44"/>
        <rect class="cls-1" x="224.31" y="536.75" width="90.67" height="120.89"/>
      </g>
    </g>
  </g>
  <g>
    <rect class="cls-5" x="250.09" y="827.42" width="88.89" height="120.89"/>
    <rect class="cls-7" x="110.54" y="827.42" width="90.67" height="120.89"/>
  </g>
  <g>
    <rect class="cls-3" x="250.09" y="979.42" width="88.89" height="120.89"/>
    <rect class="cls-7" x="110.54" y="979.42" width="90.67" height="120.89"/>
  </g>
  <g>
    <rect class="cls-3" x="110.54" y="1130.53" width="90.67" height="116.44"/>
    <rect class="cls-5" x="250.09" y="1130.53" width="88.89" height="116.44"/>
  </g>
  <g id="Secundarios">
    <rect class="cls-9" x="394.98" y="830.97" width="89.78" height="117.33"/>
    <rect class="cls-6" x="394.98" y="982.97" width="89.78" height="117.33"/>
    <rect class="cls-2" x="394.98" y="1130.53" width="89.78" height="116.44"/>
  </g>
  <g>
    <g>
      <rect class="cls-37" x="733.97" y="1382.08" width="98.66" height="131.56"/>
      <rect class="cls-28" x="606.07" y="1382.08" width="99.58" height="131.56"/>
      <rect class="cls-44" x="479.99" y="1382.08" width="99.58" height="131.56"/>
      <rect class="cls-49" x="362.98" y="1382.08" width="94.22" height="131.56"/>
      <rect class="cls-32" x="237.65" y="1382.08" width="101.33" height="131.56"/>
      <rect class="cls-48" x="118.54" y="1382.08" width="96.88" height="131.56"/>
    </g>
    <g>
      <rect class="cls-1" x="118.54" y="1382.08" width="96.88" height="131.56"/>
      <rect class="cls-1" x="237.65" y="1382.08" width="101.33" height="131.56"/>
      <rect class="cls-1" x="362.98" y="1382.08" width="94.22" height="131.56"/>
      <rect class="cls-1" x="479.99" y="1382.08" width="99.58" height="131.56"/>
      <rect class="cls-1" x="606.07" y="1382.08" width="99.58" height="131.56"/>
      <rect class="cls-1" x="733.97" y="1382.08" width="98.66" height="131.56"/>
    </g>
  </g>
  <g id="mono">
    <rect class="cls-6" x="541.54" y="1172.31" width="88.11" height="115.56"/>
    <polygon class="cls-8" points="718.09 1287.86 717.65 1172.31 629.65 1172.31 629.65 1287.86 718.09 1287.86"/>
    <polygon class="cls-7" points="806.98 1172.31 717.65 1172.31 718.09 1287.86 807.87 1287.86 806.98 1172.31"/>
    <path class="cls-10" d="M895.87,1172.31h-88.89c.3,38.52.59,77.04.89,115.56h87.56l.44-115.56Z"/>
    <polygon class="cls-9" points="895.43 1287.86 977.21 1287.86 977.21 1172.31 895.87 1172.31 895.43 1287.86"/>
  </g>
  <g id="Complementarios">
    <g>
      <rect class="cls-23" x="209.2" y="1646.97" width="90.67" height="122.67"/>
      <rect class="cls-26" x="118.54" y="1646.97" width="90.66" height="122.67"/>
    </g>
    <g>
      <polyline class="cls-1" points="209.2 1769.64 118.54 1769.64 118.54 1646.97 209.2 1646.97"/>
      <line class="cls-1" x1="209.2" y1="1646.97" x2="209.2" y2="1769.64"/>
    </g>
  </g>
  <g id="Colores_Fríos" data-name="Colores Fríos">
    <rect class="cls-8" x="693.65" y="1646.97" width="88" height="122.67"/>
    <rect class="cls-10" x="870.54" y="1646.97" width="87.11" height="122.67"/>
    <rect class="cls-7" x="781.65" y="1646.97" width="88.89" height="122.67"/>
  </g>
  <g>
    <rect class="cls-10" x="739.87" y="958.2" width="90.67" height="120.89"/>
    <polyline class="cls-7" points="921.21 1079.09 830.54 1079.09 830.54 958.2 921.21 958.2"/>
    <rect class="cls-10" x="921.21" y="958.2" width="89.78" height="120.89"/>
  </g>
  <text class="cls-13" transform="translate(121.5 127.36)"><tspan x="0" y="0">T</tspan><tspan class="cls-29" x="59.96" y="0">e</tspan><tspan class="cls-22" x="112.81" y="0">o</tspan><tspan x="166.29" y="0">ría </tspan><tspan class="cls-39" x="304.07" y="0">d</tspan><tspan class="cls-35" x="354.94" y="0">e</tspan><tspan x="407.63" y="0">l C</tspan><tspan class="cls-19" x="524.08" y="0">o</tspan><tspan x="576.77" y="0">l</tspan><tspan class="cls-51" x="603.95" y="0">o</tspan><tspan x="657.43" y="0">r</tspan></text>
  <text class="cls-13" transform="translate(94.54 276.69)"><tspan x="0" y="0">Ho</tspan><tspan class="cls-55" x="121.9" y="0">j</tspan><tspan class="cls-43" x="139.91" y="0">a </tspan><tspan class="cls-39" x="219.07" y="0">d</tspan><tspan x="269.94" y="0">e </tspan><tspan x="0" y="94.8">p</tspan><tspan class="cls-46" x="52.46" y="94.8">r</tspan><tspan class="cls-19" x="96.14" y="94.8">a</tspan><tspan class="cls-22" x="148.99" y="94.8">c</tspan><tspan x="202.71" y="94.8">ti</tspan><tspan class="cls-22" x="255.64" y="94.8">c</tspan><tspan x="309.36" y="94.8">a</tspan></text>
  <text class="cls-15" transform="translate(92.16 516.66)"><tspan x="0" y="0">C</tspan><tspan class="cls-17" x="30.41" y="0">o</tspan><tspan x="55.09" y="0">l</tspan><tspan class="cls-24" x="67.82" y="0">o</tspan><tspan x="92.87" y="0">r</tspan><tspan class="cls-54" x="112.4" y="0">e</tspan><tspan x="137.27" y="0">s Pri</tspan><tspan class="cls-34" x="231.47" y="0">m</tspan><tspan class="cls-38" x="266.18" y="0">a</tspan><tspan x="291.22" y="0">ri</tspan><tspan class="cls-25" x="319.38" y="0">o</tspan><tspan class="cls-21" x="344.21" y="0">s</tspan></text>
  <text class="cls-15" transform="translate(86.42 811.19)"><tspan x="0" y="0">C</tspan><tspan class="cls-17" x="30.41" y="0">o</tspan><tspan x="55.09" y="0">l</tspan><tspan class="cls-24" x="67.82" y="0">o</tspan><tspan x="92.87" y="0">r</tspan><tspan class="cls-41" x="112.4" y="0">e</tspan><tspan x="137.27" y="0">s S</tspan><tspan class="cls-47" x="204.46" y="0">e</tspan><tspan class="cls-17" x="229.58" y="0">c</tspan><tspan x="254.37" y="0">und</tspan><tspan class="cls-38" x="330.52" y="0">a</tspan><tspan x="355.57" y="0">ri</tspan><tspan class="cls-25" x="383.72" y="0">o</tspan><tspan x="408.55" y="0">s</tspan></text>
  <text class="cls-15" transform="translate(117.31 1359.34)"><tspan x="0" y="0">C</tspan><tspan class="cls-17" x="30.41" y="0">o</tspan><tspan x="55.09" y="0">l</tspan><tspan class="cls-24" x="67.82" y="0">o</tspan><tspan x="92.87" y="0">r</tspan><tspan class="cls-41" x="112.4" y="0">e</tspan><tspan x="137.27" y="0">s T</tspan><tspan class="cls-17" x="202.13" y="0">e</tspan><tspan x="226.81" y="0">rci</tspan><tspan class="cls-38" x="280.68" y="0">a</tspan><tspan x="305.73" y="0">ri</tspan><tspan class="cls-25" x="333.88" y="0">o</tspan><tspan x="358.71" y="0">s</tspan></text>
  <text class="cls-15" transform="translate(529.15 1039.14)"><tspan x="0" y="0">Análo</tspan><tspan class="cls-16" x="121.84" y="0">g</tspan><tspan class="cls-25" x="146.26" y="0">o</tspan><tspan x="171.09" y="0">s</tspan></text>
  <text class="cls-15" transform="translate(529.15 1139.55)"><tspan x="0" y="0">M</tspan><tspan class="cls-53" x="34.34" y="0">o</tspan><tspan class="cls-27" x="58.94" y="0">n</tspan><tspan class="cls-42" x="84.51" y="0">o</tspan><tspan class="cls-17" x="109.74" y="0">c</tspan><tspan x="134.53" y="0">romáti</tspan><tspan class="cls-50" x="267.47" y="0">c</tspan><tspan x="292.63" y="0">a</tspan></text>
  <text class="cls-15" transform="translate(39.57 1803.82)"><tspan x="0" y="0">Co</tspan><tspan class="cls-40" x="56.02" y="0">m</tspan><tspan x="90.61" y="0">ple</tspan><tspan class="cls-45" x="153.51" y="0">m</tspan><tspan x="188.25" y="0">ent</tspan><tspan class="cls-38" x="255.78" y="0">a</tspan><tspan x="280.83" y="0">ri</tspan><tspan class="cls-25" x="308.98" y="0">o</tspan><tspan x="333.81" y="0">s</tspan></text>
  <text class="cls-15" transform="translate(665.85 1808.3)"><tspan x="0" y="0">C</tspan><tspan class="cls-17" x="30.41" y="0">o</tspan><tspan x="55.09" y="0">l</tspan><tspan class="cls-24" x="67.82" y="0">o</tspan><tspan x="92.87" y="0">r</tspan><tspan class="cls-41" x="112.4" y="0">e</tspan><tspan x="137.27" y="0">s </tspan><tspan class="cls-42" x="174.05" y="0">C</tspan><tspan class="cls-53" x="204.09" y="0">a</tspan><tspan class="cls-52" x="228.77" y="0">l</tspan><tspan x="241.9" y="0">i</tspan><tspan class="cls-18" x="250.52" y="0">d</tspan><tspan class="cls-25" x="274.35" y="0">o</tspan><tspan x="299.18" y="0">s</tspan></text>
  <g>
    <text class="cls-12" transform="translate(204.76 919.83)"><tspan x="0" y="0">+</tspan></text>
    <text class="cls-14" transform="translate(346.09 909.56)"><tspan x="0" y="0">=</tspan></text>
    <text class="cls-14" transform="translate(344.68 1066)"><tspan x="0" y="0">=</tspan></text>
    <text class="cls-14" transform="translate(347.35 1215.33)"><tspan x="0" y="0">=</tspan></text>
    <text class="cls-12" transform="translate(207.79 1069.45)"><tspan x="0" y="0">+</tspan></text>
    <text class="cls-12" transform="translate(208.68 1220.56)"><tspan x="0" y="0">+</tspan></text>
  </g>
</svg>