<?xml version="1.0" encoding="UTF-8"?>
<svg id="Capa_1" data-name="Capa 1" xmlns="http://www.w3.org/2000/svg" viewBox="0 0 1210 200">
  <defs>
    <style>
      .cls-1 {
        letter-spacing: 0em;
      }

      .cls-2 {
        letter-spacing: 0em;
      }

      .cls-3 {
        fill: #badef0;
      }

      .cls-4 {
        letter-spacing: -.02em;
      }

      .cls-5 {
        fill: #194c66;
      }

      .cls-6 {
        fill: #3f3f3f;
      }

      .cls-7 {
        fill: #fff;
      }

      .cls-8 {
        letter-spacing: -.02em;
      }

      .cls-9 {
        fill: #39c;
      }

      .cls-10 {
        fill: #bfbfbf;
      }

      .cls-11 {
        letter-spacing: 0em;
      }

      .cls-12 {
        fill: #0c2633;
      }

      .cls-13 {
        fill: #267299;
      }

      .cls-14 {
        fill: #99cce5;
      }

      .cls-15 {
        fill: #7f7f7f;
      }

      .cls-16 {
        font-family: MyriadPro-Regular, 'Myriad Pro';
        font-size: 8.71px;
      }

      .cls-17 {
        fill: #54abd7;
      }
    </style>
  </defs>
  <g>
    <rect class="cls-7" x="120.87" y="103.36" width="113.59" height="96.64"/>
    <text class="cls-16" transform="translate(127.55 193.04) scale(.96 1)"><tspan x="0" y="0">H</tspan><tspan class="cls-2" x="5.68" y="0">e</tspan><tspan x="10.01" y="0" xml:space="preserve">xadecimal          #54ABD7</tspan></text>
    <rect class="cls-17" x="127.55" y="110.33" width="100.23" height="69.65"/>
  </g>
  <g>
    <rect class="cls-7" x="-1.08" y="103.36" width="113.59" height="96.64"/>
    <text class="cls-16" transform="translate(5.61 193.04) scale(.96 1)"><tspan x="0" y="0">H</tspan><tspan class="cls-2" x="5.68" y="0">e</tspan><tspan x="10.01" y="0" xml:space="preserve">xadecimal          #3F3F3F</tspan></text>
    <rect class="cls-6" x="5.61" y="110.33" width="100.23" height="69.65"/>
  </g>
  <g>
    <rect class="cls-7" x="1096.41" y="-1.98" width="113.59" height="96.64"/>
    <text class="cls-16" transform="translate(1103.09 87.69) scale(.96 1)"><tspan x="0" y="0">H</tspan><tspan class="cls-11" x="5.68" y="0">e</tspan><tspan class="cls-1" x="10.01" y="0" xml:space="preserve">xadecimal          #3399</tspan><tspan class="cls-8" x="87.61" y="0">C</tspan><tspan x="92.47" y="0">C</tspan></text>
    <rect class="cls-9" x="1103.09" y="4.99" width="100.23" height="69.65"/>
  </g>
  <g>
    <rect class="cls-7" x="974.47" y="-1.98" width="113.59" height="96.64"/>
    <text class="cls-16" transform="translate(981.15 87.69) scale(.96 1)"><tspan x="0" y="0">H</tspan><tspan class="cls-11" x="5.68" y="0">e</tspan><tspan class="cls-1" x="10.01" y="0" xml:space="preserve">xadecimal          #267299</tspan></text>
    <rect class="cls-13" x="981.15" y="4.99" width="100.23" height="69.65"/>
  </g>
  <g>
    <rect class="cls-7" x="852.52" y="-1.98" width="113.59" height="96.64"/>
    <text class="cls-16" transform="translate(859.21 87.69) scale(.96 1)"><tspan x="0" y="0">H</tspan><tspan class="cls-11" x="5.68" y="0">e</tspan><tspan class="cls-1" x="10.01" y="0" xml:space="preserve">xadecimal          #FFFFFF</tspan></text>
    <rect class="cls-7" x="859.21" y="4.99" width="100.23" height="69.65"/>
  </g>
  <g>
    <rect class="cls-7" x="730.58" y="-1.98" width="113.59" height="96.64"/>
    <text class="cls-16" transform="translate(737.26 87.69) scale(.96 1)"><tspan x="0" y="0">H</tspan><tspan class="cls-11" x="5.68" y="0">e</tspan><tspan class="cls-1" x="10.01" y="0" xml:space="preserve">xadecimal          #194C66</tspan></text>
    <rect class="cls-5" x="737.26" y="4.99" width="100.23" height="69.65"/>
  </g>
  <g>
    <rect class="cls-7" x="608.64" y="-1.98" width="113.59" height="96.64"/>
    <text class="cls-16" transform="translate(615.32 87.69) scale(.96 1)"><tspan x="0" y="0">H</tspan><tspan class="cls-11" x="5.68" y="0">e</tspan><tspan class="cls-1" x="10.01" y="0" xml:space="preserve">xadecimal          #BFBFBF</tspan></text>
    <rect class="cls-10" x="615.32" y="4.99" width="100.23" height="69.65"/>
  </g>
  <g>
    <rect class="cls-7" x="486.7" y="-1.98" width="113.59" height="96.64"/>
    <text class="cls-16" transform="translate(493.38 87.69) scale(.96 1)"><tspan x="0" y="0">H</tspan><tspan class="cls-2" x="5.68" y="0">e</tspan><tspan x="10.01" y="0" xml:space="preserve">xadecimal          #BADEF0</tspan></text>
    <rect class="cls-3" x="493.38" y="4.99" width="100.23" height="69.65"/>
  </g>
  <g>
    <rect class="cls-7" x="364.75" y="-1.98" width="113.59" height="96.64"/>
    <text class="cls-16" transform="translate(371.43 87.69) scale(.96 1)"><tspan x="0" y="0">H</tspan><tspan class="cls-2" x="5.68" y="0">e</tspan><tspan x="10.01" y="0" xml:space="preserve">xadecimal          #99</tspan><tspan class="cls-4" x="78.67" y="0">C</tspan><tspan x="83.54" y="0">CE5</tspan></text>
    <rect class="cls-14" x="371.43" y="4.99" width="100.23" height="69.65"/>
  </g>
  <g>
    <rect class="cls-7" x="242.81" y="-1.98" width="113.59" height="96.64"/>
    <text class="cls-16" transform="translate(249.49 87.69) scale(.96 1)"><tspan x="0" y="0">H</tspan><tspan class="cls-2" x="5.68" y="0">e</tspan><tspan x="10.01" y="0" xml:space="preserve">xadecimal          #7F7F7F</tspan></text>
    <rect class="cls-15" x="249.49" y="4.99" width="100.23" height="69.65"/>
  </g>
  <g>
    <rect class="cls-7" x="120.87" y="-1.98" width="113.59" height="96.64"/>
    <text class="cls-16" transform="translate(127.55 87.69) scale(.96 1)"><tspan x="0" y="0">H</tspan><tspan class="cls-2" x="5.68" y="0">e</tspan><tspan x="10.01" y="0" xml:space="preserve">xadecimal          #0C2633</tspan></text>
    <rect class="cls-12" x="127.55" y="4.99" width="100.23" height="69.65"/>
  </g>
  <g>
    <rect class="cls-7" x="-1.08" y="-1.98" width="113.59" height="96.64"/>
    <text class="cls-16" transform="translate(5.61 87.69) scale(.96 1)"><tspan x="0" y="0">H</tspan><tspan class="cls-2" x="5.68" y="0">e</tspan><tspan x="10.01" y="0" xml:space="preserve">xadecimal          #000000</tspan></text>
    <rect x="5.61" y="4.99" width="100.23" height="69.65"/>
  </g>
</svg>