<?xml version="1.0" encoding="UTF-8"?>
<svg id="Capa_1" data-name="Capa 1" xmlns="http://www.w3.org/2000/svg" viewBox="0 0 800 400">
  <defs>
    <style>
      .cls-1 {
        letter-spacing: -.04em;
      }

      .cls-2 {
        letter-spacing: -.01em;
      }

      .cls-2, .cls-3, .cls-4 {
        font-family: Orbitron-Bold, Orbitron;
        font-size: 231.27px;
        font-weight: 700;
      }

      .cls-2, .cls-4 {
        fill: #39c;
      }

      .cls-5 {
        stroke: #000;
        stroke-width: 4.2px;
      }

      .cls-5, .cls-6 {
        fill: none;
        stroke-miterlimit: 10;
      }

      .cls-4, .cls-7 {
        letter-spacing: -.01em;
      }

      .cls-6 {
        stroke: #39c;
        stroke-width: 6px;
      }

      .cls-8 {
        letter-spacing: -.01em;
      }

      .cls-9 {
        letter-spacing: -.03em;
      }
    </style>
  </defs>
  <g id="Capa_2" data-name="Capa 2">
    <path class="cls-5" d="M499.31,272.56c1.37-.38,2.34-1.64,2.34-3.07s-.97-2.69-2.34-3.07c-5.66,0-11.31,0-16.97.02v-7.25c-.14-1.89-.7-5.59-3.23-9.02-.72-.99-2.02-2.7-4.33-3.97-1.33-.74-2.54-1.05-3.43-1.26-1.05-.25-2.2-.45-5.59-.54-1.5-.04-3.46-.05-5.77,0v-16.41c-.4-1.59-1.88-2.65-3.43-2.52-1.37.11-2.54,1.14-2.88,2.52.05,5.46.13,10.94.18,16.41-4.81.05-9.61.13-14.42.18v-16.59c-.49-1.28-1.6-2.2-2.88-2.34-1.62-.18-3.26.94-3.79,2.7v16.41h-14.35v-16.43c-.36-1.35-1.57-2.31-2.96-2.33-1.42-.04-2.72.94-3.1,2.33v16.43h-14.39v-17.31c-.61-1.28-1.86-2.11-3.25-2.16-1.55-.05-2.99.88-3.61,2.34v17.31l-14.14.04c.02-5.84.05-11.68.07-17.53-.5-1.26-1.71-2.11-3.07-2.16-1.37-.05-2.65.74-3.25,1.98-.04,5.73-.09,11.47-.13,17.2h-7.46c-1.53.18-5.54.87-9.18,4.09-4.56,4.04-5.37,9.27-5.54,10.62v7.25h-17.67c-.16.11-1.48.97-1.6,2.65-.14,1.91,1.37,3.05,1.46,3.1h17.81v14.55c-5.91,0-11.81,0-17.72.02-1.1.72-1.71,1.97-1.62,3.25.13,1.69,1.46,2.6,1.62,2.7,5.91.05,11.81.11,17.72.16v14.46c-5.91.05-11.81.11-17.72.16-1.12.61-1.82,1.79-1.8,3.07,0,1.32.79,2.51,1.98,3.07h17.49l.05,13.52c-5.79.05-11.58.13-17.36.18-.14.09-1.68,1.05-1.8,2.88-.11,1.37.6,2.69,1.8,3.43,5.79.04,11.58.09,17.36.13-.02,4.47-.04,8.93-.05,13.4-5.77.05-11.54.13-17.31.18-.18.13-1.71,1.23-1.8,3.25-.09,2.24,1.68,3.52,1.8,3.61h17.31l.05,7.3c.14,1.26.79,5.39,4.27,8.93,3.59,3.64,7.84,4.29,9.09,4.44,2.74.02,5.48.05,8.22.07v16.41c.43,1.57,1.82,2.67,3.43,2.7,1.66.04,3.16-1.08,3.61-2.7v-16.41h13.87c-.05,5.41-.11,10.82-.16,16.21.32,1.93,2.04,3.23,3.79,3.07,1.48-.14,2.74-1.32,3.07-2.88l.09-16.39h14.33v16.23c-.07,2,1.62,3.57,3.43,3.43,1.68-.14,3.07-1.75,2.88-3.61,0-5.34.02-10.69.04-16.03h14.39v16.95c.52,1.69,2.11,2.81,3.79,2.7,1.46-.09,2.74-1.08,3.25-2.52v-17.13h13.7v16.41c.25,1.77,1.8,3.01,3.43,2.88,1.39-.11,2.61-1.21,2.88-2.7v-16.59h9.2c1.6-.2,7.48-1.06,10.46-5.59,1.8-2.74,2.34-6.55,2.52-7.75.14-1.01.31-2.61.36-4.33.05-1.39.04-2.56,0-3.43h15.51c1.91.02,3.48-1.57,3.43-3.43-.05-1.79-1.57-3.26-3.43-3.25-5.17-.05-10.33-.13-15.51-.18,0-4.4-.02-8.82-.04-13.22,5.25.02,10.48.04,15.72.05,1.93.18,3.61-1.37,3.61-3.25s-1.68-3.43-3.61-3.25c-5.25-.05-10.48-.13-15.72-.18-.11-4.45-.22-8.89-.32-13.34,5.54-.05,11.05-.13,16.59-.18,1.88-.05,3.34-1.66,3.25-3.43-.09-1.66-1.5-3.03-3.25-3.07h-16.05v-13.88c5.36-.05,10.69-.13,16.05-.18,1.84.11,3.37-1.33,3.43-3.07.05-1.8-1.53-3.35-3.43-3.25-5.43,0-10.84,0-16.26-.02-.05-4.74-.11-9.48-.14-14.23h17.13v.02Z"/>
    <g>
      <path d="M413.47,272.26h-2.73c-1.51,0-2.73-1.22-2.73-2.74s1.22-2.74,2.73-2.74h2.73c1.51,0,2.73,1.22,2.73,2.74s-1.22,2.74-2.73,2.74Z"/>
      <path d="M374.48,294.17c-1.51,0-2.73-1.22-2.73-2.74v-6.37c0-8.99-1.92-18.28,13.25-18.28h14.83c1.51,0,2.73,1.22,2.73,2.74s-1.22,2.74-2.73,2.74h-14.83c-9.72,0-7.79,3.23-7.79,12.8v6.37c0,1.51-1.22,2.74-2.73,2.74Z"/>
      <path d="M402.56,280.29v-2.73c0-1.51,1.22-2.73,2.74-2.73s2.74,1.22,2.74,2.73v2.73c0,1.51-1.22,2.73-2.74,2.73s-2.74-1.22-2.74-2.73Z"/>
    </g>
    <rect class="cls-6" x="361.6" y="257.85" width="107.75" height="105.43" rx="11.85" ry="11.85"/>
  </g>
  <text class="cls-4" transform="translate(15.44 383.48)"><tspan x="0" y="0">St</tspan></text>
  <text class="cls-2" transform="translate(511.18 382.54)"><tspan x="0" y="0">re</tspan></text>
  <text class="cls-3" transform="translate(83.1 188.89)"><tspan class="cls-7" x="0" y="0">T</tspan><tspan class="cls-9" x="172.29" y="0">e</tspan><tspan class="cls-1" x="326.09" y="0">c</tspan><tspan class="cls-8" x="477.34" y="0">h</tspan></text>
</svg>